<svg width="20" height="20" viewBox="0 0 20 20" fill="none" xmlns="http://www.w3.org/2000/svg">
<path d="M9.67716 4.71285C6.93168 4.71285 4.71717 6.92736 4.71717 9.67284C4.71717 12.4183 6.93168 14.6328 9.67716 14.6328C12.4226 14.6328 14.6371 12.4183 14.6371 9.67284C14.6371 6.92736 12.4226 4.71285 9.67716 4.71285ZM9.67716 12.8975C7.90296 12.8975 6.45252 11.4514 6.45252 9.67284C6.45252 7.89432 7.89864 6.4482 9.67716 6.4482C11.4557 6.4482 12.9018 7.89432 12.9018 9.67284C12.9018 11.4514 11.4514 12.8975 9.67716 12.8975ZM15.9969 4.50996C15.9969 5.15316 15.4789 5.66686 14.84 5.66686C14.1968 5.66686 13.6831 5.14885 13.6831 4.50996C13.6831 3.87108 14.2012 3.35306 14.84 3.35306C15.4789 3.35306 15.9969 3.87108 15.9969 4.50996ZM19.282 5.68413C19.2086 4.1344 18.8546 2.76166 17.7193 1.63067C16.5883 0.499668 15.2156 0.145692 13.6659 0.0679894C12.0687 -0.0226631 7.28134 -0.0226631 5.68413 0.0679894C4.13872 0.141375 2.76598 0.495351 1.63067 1.62635C0.495351 2.75735 0.145692 4.13009 0.0679894 5.67981C-0.0226631 7.27702 -0.0226631 12.0643 0.0679894 13.6616C0.141375 15.2113 0.495351 16.584 1.63067 17.715C2.76598 18.846 4.1344 19.2 5.68413 19.2777C7.28134 19.3683 12.0687 19.3683 13.6659 19.2777C15.2156 19.2043 16.5883 18.8503 17.7193 17.715C18.8503 16.584 19.2043 15.2113 19.282 13.6616C19.3727 12.0643 19.3727 7.28134 19.282 5.68413ZM17.2186 15.3753C16.8819 16.2214 16.23 16.8732 15.3796 17.2143C14.1062 17.7193 11.0844 17.6028 9.67716 17.6028C8.26989 17.6028 5.24382 17.715 3.97468 17.2143C3.12859 16.8776 2.47676 16.2257 2.13573 15.3753C1.63067 14.1019 1.74722 11.0801 1.74722 9.67284C1.74722 8.26557 1.63498 5.2395 2.13573 3.97037C2.47244 3.12427 3.12427 2.47244 3.97468 2.13141C5.24813 1.62635 8.26989 1.7429 9.67716 1.7429C11.0844 1.7429 14.1105 1.63067 15.3796 2.13141C16.2257 2.46812 16.8776 3.11996 17.2186 3.97037C17.7236 5.24382 17.6071 8.26557 17.6071 9.67284C17.6071 11.0801 17.7236 14.1062 17.2186 15.3753Z" fill="black"/>
</svg>
